<svg xmlns="http://www.w3.org/2000/svg" width="600" height="700" viewBox="-220 -80 440 470" role="img" aria-label="Nino, mascote capivara">
  <ellipse cx="8" cy="130" rx="142" ry="154" fill="#3A241C" opacity=".14"/>
  <ellipse cx="0" cy="118" rx="132" ry="148" fill="#B98257" stroke="#6E432F" stroke-width="7"/>
  <ellipse cx="-75" cy="8" rx="42" ry="48" fill="#9B6746" stroke="#6E432F" stroke-width="7"/><ellipse cx="75" cy="8" rx="42" ry="48" fill="#9B6746" stroke="#6E432F" stroke-width="7"/>
  <ellipse cx="0" cy="72" rx="142" ry="116" fill="#C98E62" stroke="#6E432F" stroke-width="7"/>
  <path d="M-92 16Q0-38 94 18" fill="none" stroke="#E1A274" stroke-width="15" stroke-linecap="round" opacity=".65"/>
  <circle cx="-52" cy="54" r="10" fill="#374151"/><circle cx="52" cy="54" r="10" fill="#374151"/>
  <ellipse cx="0" cy="92" rx="35" ry="25" fill="#7D503B"/><path d="M-18 120Q0 138 18 120" fill="none" stroke="#374151" stroke-width="7" stroke-linecap="round"/>
  <ellipse cx="-91" cy="108" rx="22" ry="12" fill="#F3A7BB" opacity=".58"/><ellipse cx="91" cy="108" rx="22" ry="12" fill="#F3A7BB" opacity=".58"/>
  <rect x="-90" y="196" width="180" height="118" rx="34" fill="#79C7F2" stroke="#315B8A" stroke-width="6"/><rect x="-42" y="222" width="84" height="64" rx="12" fill="#fff"/>
  <path d="M-20 252L-4 268L24 236" fill="none" stroke="#458B67" stroke-width="8" stroke-linecap="round" stroke-linejoin="round"/>
  <path d="M-86 214Q-145 195-157 250M86 214Q145 195 157 150" fill="none" stroke="#B98257" stroke-width="34" stroke-linecap="round"/>
  <path d="M151 157L170 126M151 157L187 151M151 157L171 183" fill="none" stroke="#B98257" stroke-width="18" stroke-linecap="round"/>
</svg>
